<?xml version="1.0" encoding="UTF-8" standalone="no"?>
<!-- Created with Inkscape (http://www.inkscape.org/) -->

<svg
   xmlns:dc="http://purl.org/dc/elements/1.1/"
   xmlns:cc="http://creativecommons.org/ns#"
   xmlns:rdf="http://www.w3.org/1999/02/22-rdf-syntax-ns#"
   xmlns:svg="http://www.w3.org/2000/svg"
   xmlns="http://www.w3.org/2000/svg"
   xmlns:sodipodi="http://sodipodi.sourceforge.net/DTD/sodipodi-0.dtd"
   xmlns:inkscape="http://www.inkscape.org/namespaces/inkscape"
   width="20cm"
   height="10cm"
   viewBox="0 0 708.66142 354.3307"
   id="svg2"
   version="1.1"
   inkscape:version="0.91 r13725"
   sodipodi:docname="planter.svg">
  <defs
     id="defs4" />
  <sodipodi:namedview
     id="base"
     pagecolor="#ffffff"
     bordercolor="#666666"
     borderopacity="1.0"
     inkscape:pageopacity="0.0"
     inkscape:pageshadow="2"
     inkscape:zoom="1.4"
     inkscape:cx="223.61929"
     inkscape:cy="1327.7286"
     inkscape:document-units="cm"
     inkscape:current-layer="layer1"
     showgrid="true"
     units="cm"
     inkscape:window-width="1855"
     inkscape:window-height="1056"
     inkscape:window-x="65"
     inkscape:window-y="24"
     inkscape:window-maximized="1">
    <inkscape:grid
       type="xygrid"
       id="grid3336"
       units="mm"
       spacingx="3.543307"
       spacingy="3.5433069"
       color="#ff3f3f"
       opacity="0.1254902"
       empcolor="#ff3f3f"
       empopacity="0.25098039"
       dotted="true" />
    <inkscape:grid
       type="xygrid"
       id="grid3338"
       units="cm"
       spacingx="35.43307"
       spacingy="35.433069" />
  </sodipodi:namedview>
  <metadata
     id="metadata7">
    <rdf:RDF>
      <cc:Work
         rdf:about="">
        <dc:format>image/svg+xml</dc:format>
        <dc:type
           rdf:resource="http://purl.org/dc/dcmitype/StillImage" />
        <dc:title></dc:title>
      </cc:Work>
    </rdf:RDF>
  </metadata>
  <g
     inkscape:label="Layer 1"
     inkscape:groupmode="layer"
     id="layer1"
     transform="translate(0,-698.03155)">
    <path
       style="fill:none;fill-rule:evenodd;stroke:#000000;stroke-width:1px;stroke-linecap:butt;stroke-linejoin:miter;stroke-opacity:1"
       d="m 0,-542.12597 0,318.89767 c 0,17.71654 17.716535,35.43307 35.433071,35.43307 l 283.464569,0 c 17.71653,0 35.43307,-17.71653 35.43307,-35.43307 l 0,-318.89767 -17.71654,0 0,301.18113 c 0,17.71654 0,35.43308 -35.43307,35.43307 l -248.031494,0 c -35.433071,1e-5 -35.433071,-17.71653 -35.433071,-35.43307 l 0,-301.18113 -17.716535,0"
       id="path3344"
       inkscape:connector-curvature="0"
       sodipodi:nodetypes="ccccccccccccc" />
    <path
       style="fill:none;fill-rule:evenodd;stroke:#000000;stroke-width:1px;stroke-linecap:butt;stroke-linejoin:miter;stroke-opacity:1"
       d="m 17.716535,-541.62089 c 0,70.86617 88.582685,141.22722 88.582675,212.09338 l 0,124.01574 17.71654,0 0,-124.01574 c 0,-70.86614 -88.582679,-141.73228 -88.582679,-212.59846 0,0 0,-17.7165 -17.716536,-17.7165 C 0,-559.84247 0,-542.12597 0,-542.12597 Z"
       id="path3346"
       inkscape:connector-curvature="0"
       sodipodi:nodetypes="ccccccccc" />
    <path
       style="fill:none;fill-rule:evenodd;stroke:#000000;stroke-width:1px;stroke-linecap:butt;stroke-linejoin:miter;stroke-opacity:1"
       d="m 248.0315,-205.51177 0,-124.0157 c 0,-70.86618 88.58267,-141.73232 88.58267,-212.5985 l 17.71654,0 c 0,0 0,-17.7165 -17.71654,-17.7165 -17.71653,0 -17.71653,17.7165 -17.71653,17.7165 0,70.86618 -88.58268,141.73232 -88.58268,212.5985 l 0,124.0157 z"
       id="path3348"
       inkscape:connector-curvature="0"
       sodipodi:nodetypes="ccccccccc" />
    <path
       style="fill:none;fill-rule:evenodd;stroke:#000000;stroke-width:1px;stroke-linecap:butt;stroke-linejoin:miter;stroke-opacity:1"
       d="m 35.433071,-542.12597 c 1.657227,-0.053 3.315293,-0.038 4.973031,-0.038 0.336717,0 0.673435,0 1.010152,0 0.336718,0 0.686391,0.092 1.010153,0 0.871756,-0.249 1.645812,-0.7902 2.525381,-1.0101 0.489996,-0.1225 1.010153,0 1.515229,0 1.515229,0 3.030458,0 4.545687,0 4.545686,0 9.091372,0 13.637059,0 14.142136,0 28.284271,0 42.426407,0 5.21912,0 10.43824,0 15.65736,0 1.85195,0 3.7039,0 5.55584,0 0.58674,0 2.06751,0.1144 2.52538,0 0.73045,-0.1826 1.28201,-0.8625 2.02031,-1.0102 0.82545,-0.1651 1.68359,0 2.52538,0 1.68359,0 3.36718,0 5.05076,0 5.89256,0 11.78512,0 17.67767,0 1.85195,0 3.7039,0 5.55584,0 0.65799,0 1.96346,0.1124 2.52538,0 0.52206,-0.1044 0.99873,-0.3759 1.51523,-0.5051 0.16333,-0.041 0.34536,0.053 0.50508,0 0.35714,-0.119 0.641,-0.4312 1.01015,-0.505 0.49527,-0.099 1.01996,0.099 1.51523,0 0.36915,-0.074 0.64493,-0.4138 1.01015,-0.5051 0.32667,-0.082 0.67344,0 1.01016,0 0.84179,0 1.68358,0 2.52538,0 2.0203,0 4.04061,0 6.06091,0 6.90271,0 13.80542,0 20.70813,0 4.8824,0 9.76481,0 14.64721,0 1.68359,0 3.36718,0 5.05076,0 0.67344,0 1.35995,-0.1321 2.02031,0 1.02765,-0.1754 1.63635,0.8323 2.52538,1.0101 0.49527,0.099 1.01015,0 1.51523,0 1.01015,0 2.0203,0 3.03046,0 0.33671,0 0.68349,-0.082 1.01015,0 2.62264,0.6557 -0.53919,0.5051 2.0203,0.5051 0.67344,0 1.34687,0 2.02031,0 0.33672,0 0.67343,0 1.01015,0 0.16836,0 0.34536,-0.053 0.50508,0 0.35714,0.1191 0.64493,0.4138 1.01015,0.5051 0.79228,0.1981 1.73311,-0.1981 2.52538,0 0.36522,0.091 0.65301,0.386 1.01015,0.5051 0.32664,0.1089 1.97389,0 2.52539,0 1.68358,0 3.36717,0 5.05076,0 5.05076,0 10.10152,0 15.15229,0 0.53991,0 2.98857,-0.1094 3.53553,0 0.52206,0.1044 0.99873,0.3759 1.51523,0.505 0.16333,0.041 0.33672,0 0.50508,0 0.33671,0 0.67343,0 1.01015,0 0.84179,0 1.68359,0 2.52538,0 2.8621,0 5.7242,0 8.5863,0 9.25973,0 18.51946,0 27.77919,0 1.51523,0 3.03046,0 4.54569,0 0.67343,0 1.34687,0 2.0203,0 0.16836,0 0.50508,-0.1683 0.50508,0 0,0.1684 -0.67344,0 -0.50508,0 0.15982,0 1.99964,-0.016 2.02031,0 0.15183,0.1178 0.12967,0.3618 0.19451,0.5427"
       id="path3360"
       inkscape:connector-curvature="0" />
    <path
       style="fill:none;fill-rule:evenodd;stroke:#000000;stroke-width:1px;stroke-linecap:butt;stroke-linejoin:miter;stroke-opacity:1"
       d="m 35.433071,-542.12597 -17.716536,0"
       id="path3370"
       inkscape:connector-curvature="0" />
    <path
       style="fill:none;fill-rule:evenodd;stroke:#000000;stroke-width:1px;stroke-linecap:butt;stroke-linejoin:miter;stroke-opacity:1"
       d="m 42.519685,-506.69287 -16.580113,5.55584"
       id="path3372"
       inkscape:connector-curvature="0"
       sodipodi:nodetypes="cc" />
    <path
       style="fill:none;fill-rule:evenodd;stroke:#000000;stroke-width:1px;stroke-linecap:butt;stroke-linejoin:miter;stroke-opacity:1"
       d="m 0,-364.96057 17.716535,0"
       id="path3402"
       inkscape:connector-curvature="0" />
    <path
       style="fill:#cccccc;fill-rule:evenodd;stroke:#000000;stroke-width:1px;stroke-linecap:butt;stroke-linejoin:miter;stroke-opacity:1"
       d="m 0,-435.82677 17.716535,0"
       id="path3404"
       inkscape:connector-curvature="0" />
    <path
       style="fill:#cccccc"
       d="m 1.2016363,-1243.3155 c 0.7228259,-5.2736 4.4099738,-10.3166 9.0487367,-12.3762 3.807227,-1.6904 11.143301,-1.7175 14.761889,-0.054 4.860364,2.2336 8.224299,6.7508 9.294891,12.4814 l 0.42368,2.2679 -16.923499,0 -16.92349889,0 0.31780119,-2.3186 z"
       id="path3406"
       inkscape:connector-curvature="0"
       transform="translate(0,698.03153)" />
    <path
       style="fill:#cccccc"
       d="m 230.84558,-965.60408 c 0.008,-33.82117 0.22519,-64.36882 0.48243,-67.88372 1.83972,-25.1383 11.55285,-47.8268 40.27144,-94.0686 18.85358,-30.3574 24.77533,-40.4721 31.11166,-53.1404 11.19674,-22.3859 15.57024,-37.1823 16.96505,-57.396 0.38597,-5.5935 0.71749,-7.4654 1.70369,-9.6195 1.70186,-3.7174 3.98164,-6.1341 7.34407,-7.7853 2.56714,-1.2607 3.40205,-1.408 7.9204,-1.3975 4.50068,0.01 5.37006,0.1671 7.98251,1.4386 3.74612,1.8234 6.52734,5.2474 7.91708,9.7469 0.56126,1.8171 1.02047,3.6208 1.02047,4.0083 0,0.5754 -1.60452,0.7044 -8.7629,0.7044 l -8.76291,0 -0.33764,5.5593 c -1.31114,21.5875 -9.91493,44.3913 -28.7738,76.263 -2.21902,3.7502 -9.04279,14.8872 -15.16392,24.7488 -15.08811,24.3081 -21.1498,34.7446 -27.287,46.9805 -7.28789,14.53 -12.11038,27.1592 -14.70847,38.5187 -2.23105,9.7547 -2.25041,10.4336 -2.26013,79.28191 l -0.009,65.53365 -8.33376,0 -8.33376,0 0.0147,-61.49304 z"
       id="path3408"
       inkscape:connector-curvature="0"
       transform="translate(0,698.03153)" />
    <path
       style="fill:#cccccc"
       d="m 30.063025,-887.18081 c -4.317058,-0.95037 -7.95246,-2.4925 -11.9081,-5.05139 -7.610346,-4.92311 -13.4245634,-12.51801 -16.4402279,-21.47529 -0.89031346,-2.64446 -0.94228046,-6.27836 -1.08162691,-75.63518 l -0.14637929,-72.85723 8.3363083,0 8.3363078,0 0.138405,69.06916 0.138406,69.06918 1.190153,3.51753 c 3.791063,11.20456 11.701826,16.09172 28.218384,17.4329 8.266643,0.67127 251.982255,0.68601 260.505245,0.0158 10.76393,-0.84649 17.51524,-3.17376 22.281,-7.68061 3.11745,-2.94807 5.29053,-6.76462 6.62699,-11.63889 0.8091,-2.95086 0.87674,-13.63838 1.01335,-160.11433 l 0.14639,-156.9525 8.07337,0 8.07338,0 0,160.7607 c 0,180.03866 0.38861,162.97167 -3.90683,171.5795 -1.9938,3.99548 -3.1559,5.55871 -6.94619,9.34391 -6.32003,6.31153 -12.36384,9.67471 -19.45156,10.82416 -2.24969,0.36485 -48.43049,0.52099 -146.72466,0.49609 -116.886838,-0.0296 -144.002675,-0.15984 -146.472115,-0.70347 z"
       id="path3410"
       inkscape:connector-curvature="0"
       transform="translate(0,698.03153)" />
    <path
       style="fill:#cccccc"
       d="m 0.51606281,-1187.0299 0,-52.6041 4.92449369,0.3261 c 2.7084715,0.1793 6.4586625,0.3272 8.3337585,0.3287 l 3.409265,0 0,52.2754 0,52.2754 -8.3337587,0 -8.33375849,0 0,-52.6041 z"
       id="path3412"
       inkscape:connector-curvature="0"
       transform="translate(0,698.03153)" />
    <path
       style="fill:#999999;fill-opacity:1"
       d="m 0.51606281,-1098.3129 0,-34.5977 8.33375849,0 8.3337587,0 0,34.5977 0,34.5978 -8.3337587,0 -8.33375849,0 0,-34.5978 z"
       id="path3418"
       inkscape:connector-curvature="0"
       transform="translate(0,698.03153)" />
    <path
       style="fill:none;fill-rule:evenodd;stroke:#000000;stroke-width:1px;stroke-linecap:butt;stroke-linejoin:miter;stroke-opacity:1"
       d="m 19.618345,-522.12876 17.456224,-3.66957"
       id="path3422"
       inkscape:connector-curvature="0"
       sodipodi:nodetypes="cc" />
    <path
       style="fill:#cccccc;fill-opacity:1"
       d="m 20.206478,-1220.9252 c -4.4e-5,-0.039 -0.170891,-1.0018 -0.379661,-2.1393 -0.832965,-4.5383 -1.348563,-9.347 -1.47399,-13.7471 l -0.08009,-2.8094 8.275217,0 8.275218,0 0.08372,1.9887 c 0.17674,4.1985 0.470089,7.373 1.033988,11.1894 0.173068,1.1713 0.291015,2.1533 0.262106,2.1822 -0.09319,0.093 -15.996427,3.4093 -15.99651,3.3355 z"
       id="path3424"
       inkscape:connector-curvature="0"
       transform="translate(0,698.03153)" />
    <path
       style="fill:#cccccc;fill-opacity:1"
       d="m 106.61157,-973.28546 c -0.2401,-68.78614 -0.24866,-69.13704 -1.8412,-75.53574 -5.919298,-23.7832 -14.598785,-41.315 -42.965062,-86.7857 -13.004626,-20.8462 -18.544833,-30.1991 -24.117066,-40.7143 -4.129151,-7.7919 -10.168456,-20.8747 -10.168456,-22.0276 0,-0.2943 2.8125,-1.4484 6.25,-2.5648 3.4375,-1.1164 6.589211,-2.1573 7.003803,-2.3132 0.414591,-0.1558 1.840133,2.5395 3.167869,5.9897 5.565542,14.4623 14.983022,31.5086 36.891028,66.7752 23.550314,37.9104 33.135204,56.9761 38.444424,76.4714 3.88655,14.2713 3.9484,15.6066 3.95295,85.3479 l 0.004,64.46429 -8.19064,0 -8.19064,0 -0.24122,-69.10715 z"
       id="path3426"
       inkscape:connector-curvature="0"
       transform="translate(0,698.03153)" />
    <path
       style="fill:#808080;fill-opacity:1"
       d="m 26.4327,-1200.1429 c -0.248049,-0.4013 -2.354503,-6.4621 -3.164086,-9.1039 -1.073958,-3.5044 -2.847492,-10.4589 -2.68193,-10.5165 0.252518,-0.088 15.539888,-3.2635 15.710484,-3.2635 0.100628,0 0.272766,0.4621 0.382529,1.0268 0.833235,4.2871 2.344052,10.0782 3.752825,14.3851 l 0.864837,2.6439 -0.411969,0.1567 c -0.578957,0.2201 -14.224973,4.8233 -14.298552,4.8233 -0.03317,0 -0.102533,-0.068 -0.154138,-0.1519 z"
       id="path3428"
       inkscape:connector-curvature="0"
       transform="translate(0,698.03153)" />
    <path
       style="fill:#999999;fill-opacity:1"
       d="m 0.4480699,-1098.4732 c 0.00778,-19.1518 0.0546767,-34.721 0.10421459,-34.5982 0.0702198,0.174 1.89703431,0.2232 8.28947361,0.2232 l 8.1994049,0 0,34.5501 0,34.5501 -8.3036193,0.048 -8.30361948,0.048 0.0141457,-34.8214 z"
       id="path3430"
       inkscape:connector-curvature="0"
       transform="translate(0,698.03153)" />
    <path
       style="fill:#999999;fill-opacity:1"
       d="m 0.43397215,-1098.4643 c 3.729e-5,-27.0763 0.047667,-34.7648 0.21433364,-34.5982 0.1603595,0.1604 2.25000001,0.2143 8.30357141,0.2143 l 8.0892858,0 0,34.5501 0,34.5501 -8.3036193,0.048 -8.30361948,0.048 4.793e-5,-34.8125 z"
       id="path3432"
       inkscape:connector-curvature="0"
       transform="translate(0,698.03153)" />
    <path
       style="fill:#999999;fill-opacity:1"
       d="m 26.247765,-1200.7978 c -0.547763,-1.311 -2.631443,-7.546 -3.331421,-9.9687 -0.974531,-3.3729 -2.309728,-8.7133 -2.216293,-8.8644 0.04119,-0.067 0.641042,-0.228 1.333002,-0.3586 0.691961,-0.1306 1.25811,-0.3096 1.25811,-0.3979 0,-0.088 0.08059,-0.1106 0.179094,-0.05 0.210603,0.1301 3.213763,-0.4653 3.213763,-0.6373 0,-0.064 0.200893,-0.079 0.446429,-0.032 0.271421,0.052 0.446428,0 0.446428,-0.1246 0,-0.1154 0.07843,-0.1614 0.174281,-0.1022 0.208362,0.1288 2.325719,-0.2852 2.325719,-0.4547 0,-0.065 0.200893,-0.08 0.446429,-0.033 0.271421,0.052 0.446428,0 0.446428,-0.1245 0,-0.1155 0.08051,-0.1602 0.178919,-0.099 0.0984,0.061 1.229772,-0.1013 2.514148,-0.3603 1.284377,-0.2589 2.437682,-0.4315 2.562901,-0.3835 0.125219,0.048 0.37466,0.7975 0.554314,1.6655 0.179654,0.8679 0.372175,1.6183 0.427824,1.6674 0.05565,0.049 0.118326,0.325 0.139281,0.6131 0.02096,0.2881 0.09355,0.6497 0.161312,0.8035 0.06777,0.1539 0.134765,0.3602 0.148886,0.4584 0.164707,1.1455 0.343211,1.875 0.45883,1.875 0.07787,0 0.09955,0.1607 0.04818,0.3571 -0.05428,0.2076 -0.0055,0.3572 0.116543,0.3572 0.115464,0 0.160273,0.08 0.09957,0.1785 -0.0607,0.098 -0.04916,0.2776 0.02565,0.3987 0.07481,0.121 0.145991,0.342 0.158184,0.491 0.05486,0.6706 0.869021,3.396 1.014466,3.396 0.08913,0 0.119759,0.069 0.06806,0.1522 -0.127064,0.2055 0.441348,2.1693 0.627923,2.1693 0.08145,0 0.101831,0.1205 0.0453,0.2678 -0.05653,0.1474 -0.0091,0.2679 0.105428,0.2679 0.114518,0 0.164754,0.07 0.111632,0.1563 -0.113519,0.1836 0.420675,1.8514 0.639681,1.9971 0.444785,0.2958 -0.931872,0.8648 -7.260604,3.0012 -3.830357,1.2929 -7.063654,2.3496 -7.185104,2.3481 -0.121449,-0 -0.338932,-0.2854 -0.483294,-0.6309 z"
       id="path3434"
       inkscape:connector-curvature="0"
       transform="translate(0,698.03153)" />
    <path
       style="fill:none;fill-rule:evenodd;stroke:#000000;stroke-width:1px;stroke-linecap:butt;stroke-linejoin:miter;stroke-opacity:1"
       d="m 116.92913,-364.96057 c 0.0408,-0.1842 0.0164,-0.3964 0.1223,-0.5525 0.0473,-0.07 0.16836,0 0.25253,0 0.12627,0 0.25254,0 0.37881,0 0.29463,0 0.58926,0 0.88389,0 0.16835,0 0.33755,-0.017 0.50507,0 0.52632,0.053 0.87792,0.1673 1.38896,0.2525 0.29357,0.049 0.59515,0.054 0.88388,0.1263 0.2199,0.055 0.40733,0.218 0.63135,0.2525 0.3328,0.051 0.67344,0 1.01015,0 0.71553,0 1.43105,0 2.14658,0 1.68358,0 3.36717,0 5.05076,0 1.80986,0 3.61971,0 5.42957,0 1.09433,0 2.19588,0.1254 3.283,0 1.11569,-0.1287 2.18333,-0.5294 3.28299,-0.7576 1.13163,-0.2349 2.27446,-0.4124 3.40927,-0.6314 1.26436,-0.244 2.51669,-0.5532 3.78807,-0.7576 1.08763,-0.1748 2.19488,-0.207 3.28299,-0.3788 1.31274,-0.2073 2.59913,-0.5667 3.91434,-0.7576 1.7591,-0.2554 5.7548,-0.5138 7.57615,-0.6313 1.38862,-0.09 2.77835,-0.1615 4.16688,-0.2526 1.17898,-0.077 2.35474,-0.2111 3.53553,-0.2525 1.21985,-0.043 2.4412,0 3.66181,0 2.23075,0 4.4615,0 6.69226,0 3.2409,0 6.48181,0 9.72271,0 1.01016,0 2.02031,0 3.03046,0 0.50508,0 1.01015,0 1.51523,0 0.16836,0 0.34174,-0.041 0.50508,0 0.31788,0.079 0.77423,0.4383 1.01015,0.6313 3.12943,2.5605 -0.6574,-0.5278 1.38896,1.2627 0.15838,0.1386 0.33896,0.2496 0.50508,0.3788 0.21273,0.1655 0.41055,0.3505 0.63134,0.5051 0.20106,0.1407 0.42323,0.2487 0.63135,0.3788 0.12869,0.08 0.24704,0.1773 0.3788,0.2525 0.16343,0.093 0.34165,0.1592 0.50508,0.2526 0.13176,0.075 0.24868,0.1744 0.37881,0.2525 0.0807,0.048 0.16836,0.084 0.25253,0.1263 0.16836,0.084 0.33207,0.1784 0.50508,0.2525 0.12234,0.053 0.25254,0.084 0.37881,0.1263 0.12627,0.042 0.24704,0.1074 0.37881,0.1263 0.16666,0.024 0.339,-0.028 0.50507,0 0.0928,0.015 0.16025,0.1078 0.25254,0.1262 0.20636,0.041 0.4209,0 0.63135,0 0.63134,0 1.26269,0 1.89403,0 0.12627,0 0.25254,0 0.37881,0 0.12627,0 0.25425,0.021 0.37881,0 0.23404,-0.039 0.42525,-0.1495 0.63134,-0.2525 0.16836,-0.084 0.34165,-0.1592 0.50508,-0.2525 0.26352,-0.1506 0.51063,-0.3287 0.75761,-0.5051 0.17125,-0.1223 0.31685,-0.2847 0.50508,-0.3788 0.15522,-0.078 0.34258,-0.065 0.50507,-0.1263 1.22608,-0.4598 -0.31019,-0.029 1.13643,-0.6313 0.28284,-0.1179 0.59319,-0.1557 0.88388,-0.2526 0.21503,-0.072 0.41632,-0.1808 0.63134,-0.2525 0.32927,-0.1098 0.67643,-0.1572 1.01016,-0.2526 0.12798,-0.036 0.25083,-0.09 0.3788,-0.1262 0.65745,-0.1879 0.35271,-0.065 1.01016,-0.2526 0.12798,-0.036 0.25418,-0.08 0.3788,-0.1262 0.21223,-0.08 0.41009,-0.2034 0.63135,-0.2526 0.3287,-0.073 0.67802,0.055 1.01015,0 0.0928,-0.015 0.15971,-0.1108 0.25254,-0.1262 0.16607,-0.028 0.33901,0.028 0.50508,0 0.0928,-0.016 0.16123,-0.1035 0.25253,-0.1263 0.0817,-0.02 0.17088,0.02 0.25254,0 0.0913,-0.023 0.16124,-0.1035 0.25254,-0.1263 0.0817,-0.02 0.16999,0.016 0.25254,0 0.13051,-0.026 0.24752,-0.1044 0.37881,-0.1262 0.12455,-0.021 0.25253,0 0.3788,0 0.29463,0 0.58926,0 0.88389,0 0.0842,0 0.16999,0.017 0.25253,0 0.13052,-0.026 0.2483,-0.1002 0.37881,-0.1263 0.0825,-0.016 0.16836,0 0.25254,0 0.16836,0 0.33672,0 0.50508,0 0.50507,0 1.01015,0 1.51523,0 0.75761,0 1.51522,0 2.27284,0 0.29463,0 0.58925,0 0.88388,0 0.12627,0 0.25499,-0.025 0.37881,0 0.18457,0.037 0.3265,0.193 0.50508,0.2525 0.0399,0.013 0.0842,0 0.12626,0 0.12627,0 0.25631,-0.031 0.37881,0 0.0577,0.014 0.0842,0.084 0.12627,0.1263 0.0842,0 0.16836,0 0.25254,0 0.0842,0 0.16836,0 0.25254,0 0.0842,0 0.17268,-0.027 0.25254,0 0.0565,0.019 0.073,0.1 0.12626,0.1263 0.0377,0.019 0.0863,-0.013 0.12627,0 0.0893,0.03 0.16326,0.096 0.25254,0.1262 0.0799,0.027 0.17725,-0.038 0.25254,0 0.0532,0.027 0.0698,0.1075 0.12627,0.1263 0.0799,0.027 0.17087,-0.02 0.25254,0 0.0913,0.023 0.16325,0.097 0.25254,0.1263 0.10582,0.035 0.42139,-0.042 0.50507,0 0.57789,0.2889 -0.53581,-0.052 0.37881,0.2525 0.11979,0.04 0.25631,-0.031 0.37881,0 0.0913,0.023 0.16325,0.097 0.25253,0.1263 0.0399,0.013 0.0965,-0.03 0.12627,0 0.0298,0.03 -0.0188,0.089 0,0.1262 0.26275,0.5255 -0.009,-0.1349 0.25254,0.1263 0.0298,0.03 -0.0188,0.089 0,0.1263 0.0532,0.1065 0.1993,0.146 0.25254,0.2525 0.0188,0.038 -0.0188,0.089 0,0.1263 0.0266,0.053 0.0996,0.073 0.12627,0.1263 0.0376,0.075 -0.0595,0.193 0,0.2525 0.0298,0.03 0.0913,-0.023 0.12627,0 0.0991,0.066 0.16836,0.1684 0.25254,0.2525 0.0842,0.084 0.1865,0.1535 0.25253,0.2526 0.0233,0.035 -0.0188,0.089 0,0.1262 0.0679,0.1358 0.17446,0.2487 0.25254,0.3789 0.0484,0.081 0.0597,0.1859 0.12627,0.2525 0.0298,0.03 0.0965,-0.03 0.12627,0 0.16836,0.1683 -0.26786,0.1212 0.12627,0.2525 0.11979,0.04 0.25254,0 0.37881,0 0.25253,0 0.50507,0 0.75761,0 0.55533,0 1.09405,0.027 1.65723,0.048"
       id="path3457"
       inkscape:connector-curvature="0" />
    <path
       style="fill:none;fill-rule:evenodd;stroke:#000000;stroke-width:1.03511536px;stroke-linecap:butt;stroke-linejoin:miter;stroke-opacity:1"
       d="m 81.493954,-432.2789 c 0.568834,0.15932 1.131517,0.339 1.706503,0.47798 0.220694,0.0529 0.808913,0 1.084862,0 0.904053,0 1.808104,0 2.712157,0 2.712156,0 5.424312,0 8.136468,0 0.994456,0 1.988913,0 2.98337,0 0.296142,0 1.180682,0.0539 1.356079,0 0.383557,-0.11882 0.692627,-0.41284 1.084867,-0.50393 0.1754,-0.0409 0.36701,0.0409 0.54243,0 0.19612,-0.0459 0.34631,-0.20641 0.54243,-0.25191 0.1754,-0.0409 0.36701,0.0409 0.54243,0 0.19612,-0.0459 0.35065,-0.19256 0.54243,-0.25201 0.0858,-0.0269 0.18545,0.0269 0.27122,0 0.19177,-0.0599 0.34632,-0.20632 0.54243,-0.25191 0.17541,-0.0409 0.37089,0.0529 0.54243,0 0.12129,-0.0379 0.18081,-0.16801 0.27121,-0.25192 0.18081,-0.0838 0.35066,-0.19265 0.54244,-0.25201 0.17572,-0.0549 1.13403,0 1.35608,0 0.99445,0 1.9889,0 2.98337,0 0.0924,0 0.93808,0.0459 1.08486,0 0.19177,-0.0599 0.35065,-0.19255 0.54243,-0.25192 0.0858,-0.0269 0.18081,0 0.27122,0 0.1808,0 0.36161,0 0.54243,0 0.36161,0 0.72324,0 1.08486,0 1.35607,0 2.71216,0 4.06824,0 3.79701,0 7.59402,0 11.39104,0 1.17527,0 2.35054,0 3.5258,0 0.63285,0 1.27057,0.0729 1.89851,0 0.36988,-0.0429 0.72326,-0.168 1.08486,-0.25201 0.36163,-0.0838 0.72326,-0.16791 1.08487,-0.25191 0.36162,-0.0838 0.71439,-0.2137 1.08486,-0.25192 0.44927,-0.0459 0.9063,0.0419 1.35608,0 0.45869,-0.0429 0.90608,-0.15912 1.35608,-0.25201 0.36387,-0.0748 0.71364,-0.22059 1.08486,-0.25192 0.63024,-0.0529 1.26568,0 1.89851,0 0.45204,0 0.90405,0 1.35608,0 3.07378,0 6.14755,0 9.22133,0 7.95566,0 15.91132,0 23.86697,0 18.89469,0 37.78937,0 56.68406,0 2.98337,0 5.96674,0 8.95012,0 1.08486,0 2.16973,0 3.25459,0 0.54243,0 1.08486,0 1.62729,0 0.18081,0 0.36512,-0.0329 0.54243,0 0.28033,0.0519 0.53164,0.20832 0.81365,0.25192 0.36738,0.0569 1.4494,0 1.89851,0 1.08486,0 2.16972,0 3.25458,0 0.26644,0 1.44791,-0.0559 1.6273,0 0.19177,0.0599 0.36161,0.16801 0.54243,0.25201 0.18081,0.0838 0.37423,0.14776 0.54243,0.25192 0.10642,0.0659 0.16484,0.18606 0.27121,0.25191 0.1682,0.10426 0.39949,0.11923 0.54244,0.25201 0.0639,0.0589 -0.0723,0.20154 0,0.25192 0.32344,0.22538 0.70947,0.36445 1.08486,0.50393 0.43646,0.16222 0.1544,-0.28873 0.54243,0.25191 0.11213,0.15633 0.15908,0.34769 0.27122,0.50392 0.0709,0.0988 0.21403,0.14576 0.27121,0.25201 0.0405,0.0749 -0.0501,0.18198 0,0.25192 0.28368,0.39528 0.80118,0.61247 1.08487,1.00775 0.0501,0.0699 -0.0686,0.19734 0,0.25202 0.59046,0.4701 1.30804,0.78956 1.8985,1.25977 0.56193,0.44746 -0.8586,0.0838 0.27122,0.50382 0.34609,0.1287 0.73124,0.14246 1.08486,0.25201 0.19178,0.0589 0.35473,0.18218 0.54243,0.25191 1.12231,0.41703 0.66386,0.0679 1.89852,0.75585 0.54706,0.30498 0.0824,0.58044 0.27121,0.75594 0.12785,0.11872 0.37089,-0.0529 0.54243,0 0.18081,0.0838 0.36161,0.16791 0.54243,0.25191 0,0.0838 -0.0639,0.19255 0,0.25192 0.0639,0.0599 0.20729,-0.0599 0.27122,0 0.0639,0.0599 0,0.168 0,0.25201 0,0.44526 0.0308,0.17299 -0.21259,0.79734"
       id="path3461"
       inkscape:connector-curvature="0" />
    <path
       style="fill:none;fill-rule:evenodd;stroke:#000000;stroke-width:1px;stroke-linecap:butt;stroke-linejoin:miter;stroke-opacity:1"
       d="m 95.669291,-375.59047 -131.102362,0"
       id="path3463"
       inkscape:connector-curvature="0" />
    <path
       style="fill:#d38d5f;fill-rule:evenodd;stroke:#000000;stroke-width:1px;stroke-linecap:butt;stroke-linejoin:miter;stroke-opacity:1"
       d="m 258.66142,-375.59047 77.95275,0"
       id="path3465"
       inkscape:connector-curvature="0" />
    <path
       style="fill:#c87137;fill-opacity:1"
       d="m 267.15189,-1125.7677 c -0.10523,-0.2742 -1.02046,-0.7739 -2.03385,-1.1105 -1.30921,-0.4349 -2.42549,-1.195 -3.85655,-2.626 -3.69363,-3.6936 -3.74552,-3.7142 -10.23697,-4.0513 -3.1386,-0.163 -29.65646,-0.2396 -58.92857,-0.1703 -41.61238,0.099 -53.65051,0.2259 -55.18631,0.5832 -1.32068,0.3073 -6.93768,0.5414 -17.14286,0.7144 -14.00201,0.2373 -15.3862,0.3166 -17.85714,1.0235 -2.40064,0.6867 -3.549447,0.7657 -11.071433,0.7609 l -8.392857,-0.01 -2.893054,-4.7208 c -1.591175,-2.5964 -4.977835,-8.0957 -7.525907,-12.2207 -7.920945,-12.823 -14.833269,-24.9805 -19.496509,-34.2907 -9.87305,-19.7117 -15.446492,-37.9538 -16.211012,-53.0594 l -0.233532,-4.6142 3.280763,0 c 2.108298,0 3.738972,-0.1915 4.562909,-0.5357 1.115599,-0.4662 6.868952,-0.5357 44.291978,-0.5357 38.048704,0 43.132654,-0.064 44.074544,-0.5506 0.91686,-0.4742 3.35694,-0.5463 17.57155,-0.5192 14.68382,0.028 16.78294,-0.039 19.00684,-0.6012 2.26049,-0.5719 5.0288,-0.6424 28.89501,-0.7354 21.81293,-0.085 26.52484,-0.018 27.14286,0.3841 0.50105,0.3263 2.62825,0.5722 6.44584,0.7454 3.17345,0.1439 6.02168,0.4425 6.42857,0.6738 0.9661,0.5493 23.9417,0.9897 56.03424,1.0741 l 24.58937,0.065 -0.22784,3.3928 c -1.23136,18.3368 -5.99801,34.0834 -16.8112,55.5357 -6.28484,12.4686 -11.30042,21.1222 -25.71565,44.3687 -6.87143,11.0811 -7.94686,12.4755 -8.50323,11.0256 z"
       id="path3467"
       inkscape:connector-curvature="0"
       transform="translate(0,698.03153)" />
    <path
       style="fill:#c87137;fill-opacity:1"
       d="m 119.88937,-1063.9554 -2.19884,-0.3585 -1.33078,-3.5877 c -4.98314,-13.4341 -14.26529,-31.0736 -28.436779,-54.0403 -2.325192,-3.7683 -4.227621,-6.9424 -4.227621,-7.0536 0,-0.1112 3.565349,-0.2022 7.922998,-0.2022 7.882733,0 10.847852,-0.3478 12.969862,-1.5213 0.47877,-0.2647 5.42456,-0.4303 15,-0.502 9.65791,-0.072 15.03773,-0.2537 16.60714,-0.5597 1.81644,-0.3542 15.06275,-0.4527 60.89286,-0.4527 l 58.57143,0 1.25,0.8593 c 0.6875,0.4727 2.18976,1.8119 3.33836,2.976 1.564,1.5853 2.53268,2.2487 3.85793,2.6422 0.97326,0.2891 1.85872,0.7579 1.9677,1.0419 0.10898,0.284 0.42202,0.5163 0.69565,0.5163 0.27362,0 0.4975,0.1772 0.4975,0.3937 0,0.2165 -2.06227,3.7924 -4.58281,7.9464 -10.59534,17.4618 -18.86129,33.3117 -23.6697,45.3864 -2.26519,5.6883 -2.74798,6.6304 -3.39788,6.6305 -0.46181,10e-5 -1.08553,-0.4785 -1.59773,-1.226 -0.73552,-1.0734 -1.20682,-1.3181 -3.78311,-1.9643 -3.3105,-0.8303 -5.76589,-0.9153 -10.14413,-0.3511 -3.84196,0.495 -7.48462,1.5429 -9.94163,2.8598 -1.56656,0.8396 -2.38065,1.0389 -4.24356,1.0389 -2.54975,0 -3.43974,-0.4087 -6.77835,-3.1129 l -1.8889,-1.5299 -11.89377,0 c -12.45677,0 -25.18611,0.6662 -30.757,1.6099 -7.22677,1.224 -13.37406,2.3631 -14.50686,2.688 -1.54478,0.443 -17.30369,0.3438 -20.19198,-0.1271 z"
       id="path3469"
       inkscape:connector-curvature="0"
       transform="translate(0,698.03153)" />
    <path
       style="fill:#a05a2c;fill-opacity:1"
       d="m 204.23106,-1063.7997 c -1.48944,-0.3808 -2.50926,-0.9689 -4.80338,-2.7699 l -1.98233,-1.5562 -12.5,0 c -18.97293,0 -24.93831,0.4468 -37.5,2.778 l -7.14286,1.3255 -10.35714,0 c -5.69643,0 -10.77314,-0.1171 -11.28157,-0.2602 -0.78343,-0.2205 -1.13038,-0.8197 -2.27468,-3.9286 -4.40554,-11.9691 -12.32767,-27.2057 -25.761961,-49.5479 -3.598003,-5.9837 -6.488093,-10.9332 -6.422421,-10.9989 0.06567,-0.066 4.035965,-0.2496 8.822874,-0.4089 6.892368,-0.2292 9.037898,-0.4186 10.310618,-0.9099 1.36799,-0.5281 3.65317,-0.6657 15.35714,-0.9251 7.5625,-0.1676 16.16071,-0.4713 19.10714,-0.6749 3.34167,-0.231 26.54293,-0.3723 61.66903,-0.3758 l 56.31188,-0.01 1.18812,0.9691 c 0.65346,0.533 2.15918,1.8623 3.34603,2.954 1.18685,1.0917 2.79399,2.1956 3.57143,2.453 0.77743,0.2575 1.79876,0.7811 2.26962,1.1636 1.06765,0.8674 1.31893,0.303 -4.44596,9.9876 -11.0288,18.5277 -17.01918,30.0664 -22.80717,43.9314 -1.19592,2.8648 -2.43608,5.5969 -2.75591,6.0714 l -0.58149,0.8627 -1.20422,-1.3004 c -1.69912,-1.835 -3.93733,-2.5183 -8.88279,-2.712 -4.97741,-0.1949 -10.05418,0.7149 -14.46428,2.592 -3.11682,1.3267 -5.12707,1.7067 -6.78572,1.2827 z"
       id="path3471"
       inkscape:connector-curvature="0"
       transform="translate(0,698.03153)" />
    <path
       style="fill:#784421;fill-opacity:1"
       d="m 124.67064,-969.82268 c -0.13198,-72.39112 0.0151,-67.55992 -2.39086,-78.53102 -0.85772,-3.9112 -3.07456,-11.9569 -3.85451,-13.9894 -0.17529,-0.4568 0.0896,-0.5046 1.72369,-0.311 1.06195,0.1257 5.7095,0.2587 10.32789,0.2954 8.05595,0.064 8.63646,0.021 14.28993,-1.0495 14.51579,-2.7496 20.71281,-3.2648 39.44728,-3.2794 l 12.84014,-0.01 1.08843,1.0484 c 0.59864,0.5766 2.04327,1.6212 3.21028,2.3214 1.88591,1.1315 2.39602,1.2731 4.58757,1.2731 2.03856,0 2.78683,-0.1762 4.31926,-1.0173 5.19735,-2.8523 13.82962,-4.0538 19.42407,-2.7035 2.27113,0.5482 2.67216,0.7754 3.51473,1.9912 0.67039,0.9674 1.21257,1.3724 1.83704,1.3724 0.67328,0 0.84332,0.1501 0.7084,0.625 -0.0976,0.3438 -0.74319,2.4733 -1.43453,4.7322 -1.40823,4.6012 -2.76227,10.4674 -3.70965,16.0714 -0.58864,3.482 -0.64165,8.5045 -0.74166,70.26787 l -0.1077,66.51785 -52.48008,0 -52.48007,0 -0.11965,-65.625 z"
       id="path3473"
       inkscape:connector-curvature="0"
       transform="translate(0,698.03153)" />
    <path
       style="fill:#00ffff;fill-opacity:1"
       d="m 44.87758,-904.63312 c -8.715023,-0.90155 -16.639586,-4.07765 -20.221073,-8.10444 -1.178997,-1.32559 -2.70038,-3.61145 -3.38085,-5.07968 -2.65343,-5.72522 -2.625433,-4.84847 -2.644422,-82.81466 l -0.01762,-72.3522 38.287318,0 38.287316,0 2.579859,6.9448 c 2.827343,7.6111 4.755413,14.3116 6.355813,22.0883 1.01545,4.9342 1.04562,6.7269 1.21784,72.361 l 0.17659,67.30141 -29.436501,-0.0808 c -16.190077,-0.0445 -30.231997,-0.16312 -31.204269,-0.2637 z"
       id="path3475"
       inkscape:connector-curvature="0"
       transform="translate(0,698.03153)" />
    <path
       style="fill:#00ffff;fill-opacity:1"
       d="m 248.93765,-969.5697 c 0.01,-69.4722 8.1e-4,-69.18 2.46664,-79.7275 1.22129,-5.224 3.55904,-12.6575 5.97999,-19.0149 l 1.77911,-4.672 38.31906,0 38.31906,0 -0.004,71.8471 c -0.003,46.6004 -0.18582,73.00077 -0.52178,75.13013 -1.68182,10.65972 -6.39799,16.34167 -16.10232,19.39975 -6.52377,2.05589 -11.18444,2.3156 -41.5819,2.31711 l -28.66308,0.001 0.009,-65.28111 z"
       id="path3477"
       inkscape:connector-curvature="0"
       transform="translate(0,698.03153)" />
    <path
       style="fill:#00ffff;fill-opacity:0.50314468"
       d="m 0.56878098,-1068.2043 0,-4.6429 8.21428572,0 8.2142853,0 0,4.6429 0,4.6428 -8.2142853,0 -8.21428572,0 0,-4.6428 z"
       id="path3479"
       inkscape:connector-curvature="0"
       transform="translate(0,698.03153)" />
    <path
       style="fill:#999999;fill-rule:evenodd;stroke:#000000;stroke-width:1px;stroke-linecap:butt;stroke-linejoin:miter;stroke-opacity:1;fill-opacity:1"
       d="m 106.29921,-258.66137 17.71654,0"
       id="path3481"
       inkscape:connector-curvature="0" />
    <path
       style="fill:#999999;fill-opacity:1"
       d="m 106.8664,-930.07229 0,-26.07813 8.21662,0 8.21662,0 -0.0916,25.98214 -0.0916,25.98214 -8.125,0.096 -8.125,0.096 0,-26.07814 z"
       id="path3483"
       inkscape:connector-curvature="0"
       transform="translate(0,698.03153)" />
    <path
       style="fill:#00ffff;fill-opacity:0.50314469"
       d="m 106.905,-930.32643 0,-26.07143 8.32447,0 8.32447,0 -0.45785,17.32143 c -0.25181,9.52679 -0.46211,21.25893 -0.46732,26.07143 l -0.009,8.75 -7.85715,0 -7.85714,0 0,-26.07143 z"
       id="path4285"
       inkscape:connector-curvature="0"
       transform="translate(0,698.03153)" />
  </g>
</svg>
